<?xml version="1.0" encoding="UTF-8"?>
<svg version="1.1" xmlns="http://www.w3.org/2000/svg" width="2646" height="1642">
<path d="M0 0 C2.79962257 2.50758089 3.00664045 4.06634887 3.38525283 7.84930134 C3.40545497 9.45201136 3.40903528 11.05498 3.39986992 12.65779114 C3.41000556 13.98891574 3.41000556 13.98891574 3.42034596 15.34693176 C3.43942236 18.34183501 3.43702006 21.336341 3.43478394 24.33129883 C3.44396334 26.4917246 3.45442724 28.65214523 3.46607029 30.81255913 C3.49421817 36.76619346 3.50340795 42.71973116 3.50944638 48.67342353 C3.51909375 55.08813007 3.54579706 61.50276969 3.57000732 67.91743469 C3.62199052 82.68482999 3.64816313 97.45221636 3.66962063 112.21968317 C3.68036925 119.51761935 3.69441593 126.81554814 3.70868507 134.11347815 C3.75730412 159.0960646 3.79801375 184.07865086 3.81632805 209.0612793 C3.8174992 210.6298012 3.81867276 212.19832309 3.81984872 213.76684499 C3.82043063 214.54469033 3.82101254 215.32253567 3.82161208 216.12395208 C3.8245667 220.06489386 3.8275535 224.00583561 3.83056641 227.94677734 C3.8311561 228.7288691 3.83174579 229.51096086 3.83235335 230.31675237 C3.8517663 255.66976443 3.91453905 281.02241429 4.00286866 306.37527357 C4.09608816 333.18063675 4.14920526 359.98578939 4.15698445 386.79131794 C4.15799097 389.7347699 4.15916553 392.67822174 4.16046524 395.62167358 C4.16091847 396.70881197 4.16091847 396.70881197 4.16138085 397.81791275 C4.16719284 409.47561371 4.20951902 421.1329078 4.26503599 432.79046585 C4.3199512 444.51218177 4.33317403 456.23335826 4.30705474 467.95517665 C4.29404667 474.30437953 4.29884271 480.65225025 4.35163498 487.00127602 C4.39956477 492.8165392 4.39651272 498.62948815 4.35324968 504.44476736 C4.34652841 506.54581596 4.35833015 508.64702466 4.39075135 510.74783385 C4.65300494 528.87391229 4.65300494 528.87391229 -2.34296989 536.08493042 C-4.192856 537.76359362 -6.07558978 539.4073186 -8 541 C-9.30158882 542.31334288 -10.59127836 543.63890153 -11.85546875 544.98828125 C-12.9628331 546.09966478 -14.07343732 547.20783104 -15.1875 548.3125 C-15.78498047 548.90732178 -16.38246094 549.50214355 -16.99804688 550.11499023 C-20.5004468 553.57975556 -24.06148689 556.92285829 -27.82421875 560.10546875 C-30.26609352 562.23169723 -32.62086128 564.43761717 -34.98046875 566.65429688 C-40.55612381 571.89113281 -46.20375834 576.92454567 -52.1796875 581.70703125 C-54.7964922 583.83454422 -57.344336 586.01975672 -59.88574219 588.2355957 C-66.89903554 594.34220136 -74.15792047 600.04235171 -81.578125 605.64453125 C-85.33394092 608.48138866 -89.04085757 611.37587461 -92.73974609 614.28637695 C-101.2964022 621.0102561 -110.02609038 627.41483978 -118.97802734 633.6015625 C-120.89245454 634.92561937 -122.80037815 636.2585331 -124.70703125 637.59375 C-152.83895087 657.21030251 -181.95660463 675.46329349 -212 692 C-213.43327637 692.78987305 -213.43327637 692.78987305 -214.89550781 693.59570312 C-221.9037243 697.44729723 -228.9415091 701.24139749 -236 705 C-237.06734375 705.5686377 -238.1346875 706.13727539 -239.234375 706.72314453 C-256.22824311 715.74106951 -273.46793545 724.08278902 -291 732 C-292.53309814 732.69706055 -292.53309814 732.69706055 -294.09716797 733.40820312 C-348.43747287 758.05595115 -405.26001983 777.99762485 -463 793 C-463.79003418 793.20540405 -464.58006836 793.41080811 -465.39404297 793.62243652 C-532.12025489 810.90633244 -600.26111089 821.95241802 -669 827 C-669.67242737 827.04985046 -670.34485474 827.09970093 -671.03765869 827.15106201 C-768.08199236 834.26720021 -866.09983625 828.43725913 -1120.49829102 778.57373047 C-1128.00571121 776.56151607 -1135.5179845 774.606169 -1143.078125 772.80078125 C-1193.67878485 760.68405185 -1241.26284852 740.87055411 -1288.24365234 718.76269531 C-1291.56259782 717.20260764 -1294.88813232 715.6570053 -1298.2150116 714.11392212 C-1323.80014396 702.24316505 -1348.82476701 689.62104579 -1373.28857422 675.55273438 C-1375.93598421 674.0366595 -1378.59292438 672.53897713 -1381.25390625 671.046875 C-1394.76931393 663.44620641 -1407.91071138 655.30927583 -1421 647 C-1422.09586426 646.30729004 -1423.19172852 645.61458008 -1424.32080078 644.90087891 C-1427.65444943 642.79290029 -1430.984186 640.6788898 -1434.3125 638.5625 C-1435.31958008 637.92473633 -1436.32666016 637.28697266 -1437.36425781 636.62988281 C-1443.19180262 632.90699835 -1448.82728227 629.001217 -1454.39428711 624.8996582 C-1458.23513839 622.09953979 -1462.18032903 619.46309797 -1466.125 616.8125 C-1474.64590017 611.03393904 -1482.82213891 604.89156622 -1490.95019531 598.57763672 C-1493.63173446 596.51378417 -1496.3469939 594.49745309 -1499.06494141 592.48193359 C-1507.30763748 586.36690485 -1515.30064774 579.98298875 -1523.22363281 573.46044922 C-1525.70330314 571.42177578 -1528.19673813 569.40009769 -1530.6875 567.375 C-1536.25872251 562.80992365 -1541.75953159 558.16431645 -1547.24267578 553.49414062 C-1549.12579613 551.89304358 -1551.0140312 550.29809386 -1552.90234375 548.703125 C-1554.18507322 547.61479237 -1555.46762943 546.5262555 -1556.75 545.4375 C-1557.35884033 544.92469482 -1557.96768066 544.41188965 -1558.5949707 543.88354492 C-1562.88620234 540.22759532 -1562.88620234 540.22759532 -1564 538 C-1560.66738198 538.56478915 -1557.95419156 539.35235373 -1554.95703125 540.90625 C-1554.15305908 541.31149902 -1553.34908691 541.71674805 -1552.52075195 542.13427734 C-1551.18016724 542.81031006 -1551.18016724 542.81031006 -1549.8125 543.5 C-1492.73569931 571.45155901 -1430.28234619 590.80012725 -1369 607 C-1368.17191833 607.2198053 -1367.34383667 607.4396106 -1366.49066162 607.66607666 C-1338.21677363 615.16031826 -1309.69803192 621.36085962 -1281 627 C-1280.13759705 627.16951172 -1279.27519409 627.33902344 -1278.38665771 627.51367188 C-1206.93448457 641.48985127 -1133.79907458 648.98162341 -1061 650 C-1060.27794373 650.01095703 -1059.55588745 650.02191406 -1058.81195068 650.03320312 C-961.77245704 651.46400634 -864.45653974 641.36733115 -770 619 C-769.18072021 618.80684204 -768.36144043 618.61368408 -767.51733398 618.41467285 C-684.23271023 598.74425086 -604.21195566 569.49519246 -473 505 C-471.87158691 504.38415039 -470.74317383 503.76830078 -469.58056641 503.13378906 C-453.13817469 494.15671517 -436.97349247 484.7861932 -421 475 C-420.04657715 474.41847168 -419.0931543 473.83694336 -418.11083984 473.23779297 C-392.81426512 457.77371721 -368.12634055 441.22926058 -344 424 C-343.26394531 423.47712402 -342.52789063 422.95424805 -341.76953125 422.41552734 C-332.69470348 415.96376825 -323.74635572 409.35381319 -314.875 402.625 C-314.01011963 401.97096191 -313.14523926 401.31692383 -312.25415039 400.64306641 C-303.34641421 393.84690264 -295.28338611 386.44866743 -287.3815918 378.51196289 C-285.93974779 377.06475615 -284.49262884 375.62297974 -283.04492188 374.18164062 C-278.3644528 369.50417757 -273.82462394 364.76121946 -269.51782227 359.73608398 C-267.29489611 357.1935027 -264.91659663 354.85973553 -262.5 352.5 C-258.84038869 348.88927427 -255.34560813 345.20318826 -252.0078125 341.29296875 C-249.2396178 338.13162577 -246.36779342 335.07088009 -243.5 332 C-238.90902088 327.07395995 -234.37749227 322.11787152 -230 317 C-229.12377679 315.97779697 -228.24746655 314.95566854 -227.37109375 313.93359375 C-225.85297786 312.16266922 -224.33545508 310.3912515 -222.81958008 308.6184082 C-220.16895703 305.52036749 -217.50948466 302.43087083 -214.828125 299.359375 C-207.30622435 290.7415378 -199.96845077 281.98982186 -192.73632812 273.12744141 C-191.0196732 271.02410465 -189.29907853 268.92403891 -187.578125 266.82421875 C-181.81957888 259.78357173 -176.15906246 252.68704962 -170.64453125 245.453125 C-168.70214735 242.90705744 -166.73732155 240.379753 -164.76171875 237.859375 C-156.29639775 227.05649002 -148.07622884 216.0964188 -140 205 C-139.4548877 204.25250488 -138.90977539 203.50500977 -138.34814453 202.73486328 C-125.23699379 184.74001566 -112.54460557 166.46182408 -100.10302734 147.99853516 C-98.2399361 145.23507255 -96.37204624 142.47489508 -94.50390625 139.71484375 C-88.18456774 130.35799976 -81.99034863 120.94801071 -76.06103516 111.33886719 C-74.41888332 108.678589 -72.7578669 106.03522803 -71.06640625 103.40625 C-61.68925457 88.80016916 -52.91162394 73.83523181 -44.1072998 58.88000488 C-43.07957854 57.13511068 -42.05011602 55.39124238 -41.02050781 53.64746094 C-32.25384787 38.79245183 -23.80594576 23.77880796 -15.49536133 8.6652832 C-11.34826767 1.27363888 -11.34826767 1.27363888 -9.25 -0.375 C-5.86406073 -1.31553869 -3.37798992 -0.85985198 0 0 Z " fill="#9C999D" transform="translate(1564,1)"/>
<path d="M0 0 C1.08192627 0.25720825 2.16385254 0.5144165 3.27856445 0.77941895 C6.33750987 1.51009014 9.39380725 2.2507978 12.44921875 2.99609375 C13.34791183 3.21134201 14.24660492 3.42659027 15.17253113 3.64836121 C18.92873398 4.57778221 22.50159519 5.55438443 26.04199219 7.12866211 C29.21699231 8.52062805 32.12159359 9.34645788 35.50390625 10.0703125 C37.26806885 10.45932739 37.26806885 10.45932739 39.06787109 10.85620117 C40.32422363 11.13052979 41.58057617 11.4048584 42.875 11.6875 C121.30430312 29.37357913 197.02821584 67.55730404 266.3125 107.5625 C266.88863037 107.89481628 267.46476074 108.22713257 268.05834961 108.56951904 C296.31538437 124.87538294 296.31538437 124.87538294 309.76513672 133.86230469 C312.33905549 135.58022402 314.91935311 137.28819753 317.5007019 138.99491882 C342.72872601 155.68047729 367.4589138 172.94652683 391.3125 191.5625 C391.88307129 192.0069043 392.45364258 192.45130859 393.04150391 192.90917969 C404.77491259 202.05400707 416.27346723 211.45878221 427.59912109 221.10351562 C428.75761347 222.09000044 429.9168127 223.07565565 431.07666016 224.06054688 C438.1094697 230.03430256 445.04817935 236.0816343 451.8515625 242.31640625 C457.55978647 247.52629321 463.43663929 252.54353565 469.3125 257.5625 C468.9825 258.2225 468.6525 258.8825 468.3125 259.5625 C467.60681885 259.21171387 466.9011377 258.86092773 466.17407227 258.49951172 C406.46365328 228.94350059 343.4723718 206.33696667 279.3125 188.5625 C278.52651428 188.34376221 277.74052856 188.12502441 276.9307251 187.8996582 C200.96598271 166.78140869 123.01100866 153.47306639 44.4375 147.3125 C43.38002563 147.22941589 42.32255127 147.14633179 41.23303223 147.06072998 C38.15831749 146.82190029 35.08321737 146.58913525 32.0078125 146.359375 C31.13720184 146.29293793 30.26659119 146.22650085 29.36959839 146.15805054 C12.68872087 144.9466093 -3.9814998 144.39893576 -20.703125 144.359375 C-22.55752586 144.35234914 -24.41192649 144.34526236 -26.2663269 144.33811951 C-32.15672154 144.3187373 -38.04707669 144.31368524 -43.9375 144.3125 C-45.44483829 144.31183722 -45.44483829 144.31183722 -46.98262787 144.31116104 C-77.04836413 144.30423212 -106.97778399 144.54315986 -136.93994141 147.30926514 C-139.81482153 147.57423487 -142.69051808 147.82874043 -145.56640625 148.08251953 C-205.72315153 153.46128254 -265.15120959 163.72442593 -323.6875 178.5625 C-324.8516745 178.855802 -324.8516745 178.855802 -326.03936768 179.1550293 C-402.31594485 198.39232827 -475.72715294 227.01865205 -546.17822266 261.82910156 C-549.2547927 263.34876535 -552.33553039 264.8594791 -555.41796875 266.3671875 C-594.17281982 285.41744238 -631.70539559 307.7059119 -667.6875 331.5625 C-669.38277904 332.67973827 -671.07809228 333.79692465 -672.7734375 334.9140625 C-692.46414482 347.92851349 -711.77796419 361.43771415 -730.6875 375.5625 C-732.05454697 376.57831414 -733.42173053 377.5939445 -734.7890625 378.609375 C-749.67370175 389.68941218 -764.32081289 401.07836157 -778.63330078 412.8894043 C-780.0861308 414.07269929 -781.55498913 415.23644179 -783.03466797 416.38598633 C-791.2097758 422.8365976 -798.48195858 430.08612841 -805.8046875 437.47387695 C-807.94214882 439.62968873 -810.08759848 441.77729622 -812.234375 443.92382812 C-813.62026527 445.3146324 -815.00569792 446.70589286 -816.390625 448.09765625 C-817.33461151 449.043312 -817.33461151 449.043312 -818.29766846 450.0080719 C-822.04323917 453.79316456 -825.60766731 457.68777699 -829.07098389 461.73313904 C-830.70961642 463.58752847 -832.42087553 465.3303222 -834.1875 467.0625 C-837.15807406 469.98717115 -839.89479119 473.04869561 -842.61328125 476.20703125 C-844.70192757 478.57888385 -846.84298105 480.89155475 -848.99975586 483.20117188 C-854.04504045 488.60508863 -858.84537206 494.11472332 -863.4765625 499.8828125 C-865.7968495 502.69503315 -868.21821134 505.38047263 -870.6875 508.0625 C-874.72704818 512.45628548 -878.53429619 516.98088824 -882.28125 521.625 C-884.98529387 524.92604057 -887.76879525 528.14998645 -890.5625 531.375 C-895.52680982 537.12505054 -900.26314196 543.02060336 -904.921875 549.01953125 C-907.23492755 551.996151 -909.59268504 554.93361308 -911.96386719 557.86401367 C-917.75599249 565.03124096 -923.33045539 572.34421861 -928.83447266 579.73461914 C-932.10673506 584.12712674 -935.39786739 588.50185155 -938.7421875 592.83984375 C-945.79918147 601.99659997 -952.63976919 611.22245732 -959.09936523 620.81176758 C-962.41625384 625.7319829 -965.83268984 630.55228603 -969.375 635.3125 C-974.31092032 641.96055659 -978.92374494 648.78869822 -983.46679688 655.70947266 C-985.0585299 658.12572339 -986.67013424 660.5283739 -988.28173828 662.93139648 C-1008.25047232 692.74043453 -1027.03627907 723.26791757 -1045.125 754.25 C-1045.99789673 755.74394287 -1045.99789673 755.74394287 -1046.88842773 757.26806641 C-1049.36778253 761.5248223 -1051.82823205 765.78726679 -1054.19921875 770.10546875 C-1054.74654663 771.0951062 -1054.74654663 771.0951062 -1055.30493164 772.10473633 C-1056.22622098 773.78055873 -1057.13338642 775.46412588 -1058.0390625 777.1484375 C-1059.78756685 779.70904339 -1060.76116392 780.63061822 -1063.6875 781.5625 C-1069.82036126 781.34731189 -1069.82036126 781.34731189 -1072.37560606 779.03466409 C-1074.26337429 775.47730881 -1074.1244785 772.06498038 -1074.11530304 768.13287449 C-1074.1250561 767.27010331 -1074.13480916 766.40733213 -1074.14485776 765.51841637 C-1074.17401131 762.60730725 -1074.18173987 759.69653267 -1074.1895752 756.78529358 C-1074.20591154 754.68490028 -1074.22350162 752.58451642 -1074.24224234 750.4841432 C-1074.28985774 744.69615013 -1074.31836194 738.90819529 -1074.34353685 733.12006676 C-1074.36753161 728.15905542 -1074.4026073 723.19814752 -1074.43778127 718.23720474 C-1074.55855211 701.17371966 -1074.63936097 684.11016015 -1074.70988968 667.04640817 C-1074.718722 664.91690703 -1074.72769208 662.78740652 -1074.73670363 660.65790614 C-1074.85120491 633.55175253 -1074.95170306 606.44554724 -1075.01648109 579.33922595 C-1075.03296236 572.44758498 -1075.05006132 565.55594554 -1075.06738281 558.66430664 C-1075.07022873 557.52208368 -1075.07022873 557.52208368 -1075.07313215 556.35678551 C-1075.13510185 531.69677918 -1075.27291101 507.0379619 -1075.45334087 482.37855895 C-1075.63859894 457.01287719 -1075.75516027 431.64783177 -1075.78299082 406.28146336 C-1075.78694064 402.69309315 -1075.79162646 399.10472424 -1075.79673767 395.51635551 C-1075.79771405 394.81018435 -1075.79869044 394.10401319 -1075.7996964 393.3764429 C-1075.81727827 382.04353482 -1075.90580625 370.71225863 -1076.02085633 359.37996792 C-1076.1350462 347.96912125 -1076.16941751 336.56059001 -1076.12956852 325.14904303 C-1076.1102205 318.97348632 -1076.12424472 312.80296349 -1076.23118973 306.6281929 C-1076.91146578 265.20190305 -1076.91146578 265.20190305 -1066.39555883 254.06737942 C-1062.87611846 250.80650654 -1059.25837444 247.9575532 -1055.26399517 245.30275714 C-1051.43885984 242.7191237 -1048.10062018 239.65643277 -1044.6875 236.5625 C-1043.56149807 235.58518541 -1042.43303635 234.61068816 -1041.30078125 233.640625 C-1040.76219482 233.17857666 -1040.2236084 232.71652832 -1039.66870117 232.24047852 C-1037.27165321 230.1892227 -1034.87300399 228.13984628 -1032.47363281 226.09130859 C-1030.80867836 224.66622046 -1029.14973918 223.23446522 -1027.4921875 221.80078125 C-1020.24958568 215.56573711 -1012.75997933 209.7158812 -1005.140625 203.94921875 C-1001.39542142 201.11231762 -997.69158235 198.22624184 -993.99633789 195.32470703 C-979.31647087 183.80864571 -964.1451988 173.00623553 -948.6875 162.5625 C-947.90036621 162.03043945 -947.11323242 161.49837891 -946.30224609 160.95019531 C-886.72859219 120.77072763 -823.68545092 85.98235559 -757.6875 57.5625 C-756.65532349 57.11713898 -756.65532349 57.11713898 -755.60229492 56.66278076 C-736.50063973 48.42677351 -717.23435794 40.68833565 -697.6875 33.5625 C-696.99825439 33.31091125 -696.30900879 33.05932251 -695.59887695 32.80010986 C-614.09370801 3.10154255 -529.63830966 -16.99894021 0 0 Z " fill="#989598" transform="translate(2176.6875,860.4375)"/>
<path d="M0 0 C0.66 0.66 1.32 1.32 2 2 C-3.94 7.445 -3.94 7.445 -10 13 C-10.66 12.67 -11.32 12.34 -12 12 C-8.04 8.04 -4.08 4.08 0 0 Z " fill="#848281" transform="translate(1360,1301)"/>
</svg>
